<?xml version="1.0" encoding="utf-8"?>
<!-- Generator: Adobe Illustrator 25.3.1, SVG Export Plug-In . SVG Version: 6.00 Build 0)  -->
<svg version="1.1" id="Capa_1" xmlns="http://www.w3.org/2000/svg" xmlns:xlink="http://www.w3.org/1999/xlink" x="0px" y="0px"
	 viewBox="0 0 226.8 279.4" style="enable-background:new 0 0 226.8 279.4;" xml:space="preserve">
<style type="text/css">
	.st0{fill:none;stroke:#717171;stroke-width:0.5;stroke-miterlimit:10;}
	.st1{fill:none;}
	.st2{font-family:'IBMPlexSansCond';}
	.st3{font-size:6.5041px;}
	.st4{fill:#333333;}
	.st5{fill:none;stroke:#717171;stroke-linecap:round;stroke-linejoin:round;}
	.st6{fill:none;stroke:#717171;stroke-linecap:round;stroke-linejoin:round;stroke-dasharray:2.0321,2.0321;}
	.st7{fill:none;stroke:#717171;stroke-linecap:round;stroke-linejoin:round;stroke-dasharray:1.9507,1.9507;}
</style>
<line class="st0" x1="35.2" y1="221.3" x2="199.1" y2="221.3"/>
<line class="st0" x1="35.2" y1="31" x2="35.2" y2="221.3"/>
<rect x="21" y="247.4" class="st1" width="97.8" height="10"/>
<text transform="matrix(1 0 0 1 20.6543 255.6539)" class="st2 st3">Fuente: ENCCRV,  Conaf.</text>
<rect x="20" y="28.4" class="st1" width="10.9" height="5.2"/>
<text transform="matrix(1 0 0 1 20.0039 33.2159)" class="st4 st2 st3">1,0</text>
<g>
	<g>
		<line class="st5" x1="97.6" y1="80.1" x2="97.6" y2="80.8"/>
		<line class="st6" x1="97.6" y1="82.1" x2="97.6" y2="107.9"/>
		<line class="st5" x1="97.6" y1="108.5" x2="97.6" y2="109.2"/>
	</g>
</g>
<g>
	<g>
		<line class="st5" x1="131.4" y1="30.4" x2="131.4" y2="31"/>
		<line class="st7" x1="131.4" y1="32.3" x2="131.4" y2="77.3"/>
		<line class="st5" x1="131.4" y1="78" x2="131.4" y2="78.6"/>
	</g>
</g>
<polyline class="st0" points="63.1,80.1 97.6,80.1 131.4,30.4 "/>
<g>
	<g>
		<line class="st5" x1="63.1" y1="109.2" x2="63.1" y2="108.5"/>
		<line class="st6" x1="63.1" y1="107.2" x2="63.1" y2="81.4"/>
		<line class="st5" x1="63.1" y1="80.8" x2="63.1" y2="80.1"/>
	</g>
</g>
<g>
	<g>
		<line class="st5" x1="165.9" y1="30.4" x2="165.9" y2="31"/>
		<line class="st7" x1="165.9" y1="32.3" x2="165.9" y2="77.3"/>
		<line class="st5" x1="165.9" y1="78" x2="165.9" y2="78.6"/>
	</g>
</g>
<line class="st0" x1="200.4" y1="30.4" x2="131.4" y2="30.4"/>
<g>
	<g>
		<line class="st5" x1="200.4" y1="78.6" x2="200.4" y2="78"/>
		<line class="st7" x1="200.4" y1="76.7" x2="200.4" y2="31.7"/>
		<line class="st5" x1="200.4" y1="31" x2="200.4" y2="30.4"/>
	</g>
</g>
<polyline class="st0" points="63.1,109.2 97.6,109.2 131.4,78.6 200.4,78.6 "/>
<line class="st0" x1="34.2" y1="31" x2="36.1" y2="31"/>
<line class="st0" x1="34.2" y1="40.8" x2="36.1" y2="40.8"/>
<rect x="20" y="47.9" class="st1" width="10.9" height="5.2"/>
<text transform="matrix(1 0 0 1 20.0039 52.7281)" class="st4 st2 st3">0,9</text>
<line class="st0" x1="34.2" y1="50.5" x2="36.1" y2="50.5"/>
<line class="st0" x1="34.2" y1="60.3" x2="36.1" y2="60.3"/>
<rect x="20" y="67.4" class="st1" width="10.9" height="5.2"/>
<text transform="matrix(1 0 0 1 20.0039 72.2408)" class="st4 st2 st3">0,8</text>
<line class="st0" x1="34.2" y1="70" x2="36.1" y2="70"/>
<line class="st0" x1="34.2" y1="79.8" x2="36.1" y2="79.8"/>
<rect x="20" y="86.9" class="st1" width="10.9" height="5.2"/>
<text transform="matrix(1 0 0 1 20.0039 91.7525)" class="st4 st2 st3">0,7</text>
<line class="st0" x1="34.2" y1="89.5" x2="36.1" y2="89.5"/>
<line class="st0" x1="34.2" y1="99.3" x2="36.1" y2="99.3"/>
<rect x="20" y="106.5" class="st1" width="10.9" height="5.2"/>
<text transform="matrix(1 0 0 1 20.0039 111.2652)" class="st4 st2 st3">0,6</text>
<line class="st0" x1="34.2" y1="109.1" x2="36.1" y2="109.1"/>
<line class="st0" x1="34.2" y1="118.8" x2="36.1" y2="118.8"/>
<rect x="20" y="126" class="st1" width="10.9" height="5.2"/>
<text transform="matrix(1 0 0 1 20.0039 130.777)" class="st4 st2 st3">0,5</text>
<line class="st0" x1="34.2" y1="128.6" x2="36.1" y2="128.6"/>
<line class="st0" x1="34.2" y1="138.3" x2="36.1" y2="138.3"/>
<rect x="20" y="145.5" class="st1" width="10.9" height="5.2"/>
<text transform="matrix(1 0 0 1 20.0039 150.2897)" class="st4 st2 st3">0,4</text>
<line class="st0" x1="34.2" y1="148.1" x2="36.1" y2="148.1"/>
<line class="st0" x1="34.2" y1="157.8" x2="36.1" y2="157.8"/>
<rect x="20" y="165" class="st1" width="10.9" height="5.2"/>
<text transform="matrix(1 0 0 1 20.0039 169.8024)" class="st4 st2 st3">0,3</text>
<line class="st0" x1="34.2" y1="167.6" x2="36.1" y2="167.6"/>
<line class="st0" x1="34.2" y1="177.3" x2="36.1" y2="177.3"/>
<rect x="20" y="184.5" class="st1" width="10.9" height="5.2"/>
<text transform="matrix(1 0 0 1 20.0039 189.3141)" class="st4 st2 st3">0,2</text>
<line class="st0" x1="34.2" y1="187.1" x2="36.1" y2="187.1"/>
<line class="st0" x1="34.2" y1="196.9" x2="36.1" y2="196.9"/>
<line class="st0" x1="63.8" y1="222.2" x2="63.8" y2="220.2"/>
<line class="st0" x1="97.6" y1="222.2" x2="97.6" y2="220.2"/>
<line class="st0" x1="131.4" y1="222.2" x2="131.4" y2="220.2"/>
<line class="st0" x1="165.2" y1="222.2" x2="165.2" y2="220.2"/>
<line class="st0" x1="199.1" y1="221.3" x2="199.1" y2="220.2"/>
<line class="st0" x1="199.1" y1="222.2" x2="199.1" y2="221.3"/>
<rect x="20" y="204" class="st1" width="24.6" height="5.2"/>
<text transform="matrix(1 0 0 1 20.0039 208.8268)" class="st4 st2 st3">0,1</text>
<rect x="62.3" y="229.4" class="st1" width="3.1" height="5.2"/>
<text transform="matrix(1 0 0 1 62.625 234.193)" class="st4 st2 st3">I</text>
<rect x="94.4" y="229.4" class="st1" width="6.4" height="5.2"/>
<text transform="matrix(1 0 0 1 95.2383 234.193)" class="st4 st2 st3">II</text>
<rect x="125.1" y="229.4" class="st1" width="12.6" height="5.2"/>
<text transform="matrix(1 0 0 1 127.8823 234.193)" class="st4 st2 st3">III</text>
<rect x="158.9" y="229.4" class="st1" width="12.6" height="5.2"/>
<text transform="matrix(1 0 0 1 162.2725 234.193)" class="st4 st2 st3">IV</text>
<rect x="192.7" y="229.4" class="st1" width="12.6" height="5.2"/>
<text transform="matrix(1 0 0 1 197.2715 234.193)" class="st4 st2 st3">V</text>
<line class="st0" x1="34.2" y1="206.6" x2="36.1" y2="206.6"/>
</svg>
