<?xml version="1.0" encoding="utf-8"?>
<!-- Generator: Adobe Illustrator 25.3.1, SVG Export Plug-In . SVG Version: 6.00 Build 0)  -->
<svg version="1.1" id="Capa_1" xmlns="http://www.w3.org/2000/svg" xmlns:xlink="http://www.w3.org/1999/xlink" x="0px" y="0px"
	 viewBox="0 0 135 280" style="enable-background:new 0 0 135 280;" xml:space="preserve">
<style type="text/css">
	.st0{fill:#CC322E;}
	.st1{fill:none;stroke:#000000;stroke-width:0.5;stroke-miterlimit:10;}
	.st2{fill:none;stroke:#717171;stroke-linecap:round;stroke-linejoin:round;stroke-miterlimit:10;}
	.st3{fill:none;stroke:#717171;stroke-miterlimit:10;}
	.st4{fill:none;}
	.st5{fill:#333333;}
	.st6{font-family:'IBMPlexSans-SemiBold';}
	.st7{font-size:8px;}
	.st8{fill:none;stroke:#717171;stroke-width:0.5;stroke-miterlimit:10;}
	.st9{font-family:'IBMPlexSansCond';}
	.st10{font-size:6px;}
</style>
<image style="display:none;overflow:visible;enable-background:new    ;" width="223" height="332" xlink:href="../../../../Desktop/Grafico-desertificacion-zonas-salamanqueja_Mesa de trabajo 1.png"  transform="matrix(0.6067 0 0 0.6067 1 32)">
</image>
<path class="st0" d="M69.9,177.1c-0.1,0.8,0,1.4,0,2c0,1,1,3-1,3s-4.5,3-5.5,6c-0.4,1.3,0.4,1.6,0.5,2c0.1,0.5-0.5,1-0.5,1
	s-1.5,0-1.5,2c0,1.8,0.3,3.6,0.9,4.7c0.1,0.1,0.1,0.2,0.2,0.3c0.6,1,2.4,0,2.4,0s0.5,2,0.5,3s-2.5,2-2.5,2l0.7,0.3l1.3,0.7l1,1.3
	l0.5,4.7l-0.5,3h-4l-0.3-0.6l-0.7-1.4c0,0-1.5,0-2.5,0s-3.5,3-3.5,3l-1.5,3l-0.9,5c0,0-0.2-0.1-0.4-0.1l0,0
	c-0.7-0.2-2.2-0.6-2.2,0.1c0,1-3,1-3,1s0.4-0.9,0.5-2c0-0.3-0.1-0.8,0-1c0.4-0.9,0-4,0-4s0-2.5,1-3.5c0.5-0.5,1-1.9,1-1.9l1-2.1
	c0,0,1-3.5,1-5.5l-1-6.5c0-0.4,0.3-0.8,0.2-1.1c-0.4-1.7-1.2-0.1-1.2-0.9l-1-4c0-1.7,0.2-3.6,0-5.5c0-0.3,0-2,0-2l1-1.5l2-3
	c0,0,0.4-4.2,0.4-5.4c0-0.6,5.6,3.9,6.6,2.4s-0.1-7,0-7c1.3,1,0.9-1.9,3.9,0.1l0.5,1.1l0.6,1.2c0,0,0.5,1.1,1.5,1.1
	c0.5,0,1,0.3,1.5,0.5s0.8,0.2,1.3,0.2c1,0,1.5,1.1,1.7,2.3C70,175.5,70,176.5,69.9,177.1z"/>
<line class="st1" x1="76" y1="31" x2="72.8" y2="34.2"/>
<line class="st1" x1="93.9" y1="104.1" x2="92.4" y2="105.6"/>
<line class="st1" x1="69.4" y1="163.6" x2="67.1" y2="165.9"/>
<polyline class="st1" points="53.5,221.5 53.1,221.9 53.1,221.9 "/>
<path class="st0" d="M71.9,38.1l0.5-1.5v-4.7l2-0.3l2-1l1,1v2.5l2.5,3v1v-0.5v3.5v1l3,2v2l1,4l1.5,1.5l1,1l1.5,1.5l-1,2l0,0l-1,1
	l1,2l-2,1v1l0,0l-1.5,0.5l-1.5,2.5h4l1,1l0.5-0.5c0,0,0,1.4,0,1.7c0,0.3-0.1,1.2-0.1,1.2l-0.4,2.6l1.7,0l1.3,1l0.5-0.5l-0.6,2.8
	c0,0,0.5-0.4,0.5,0.6c0,0.4,0.6,0.6,0.8,0.8c0.3,0.4,0.3,0.8,0.3,0.8l0.7,0.7l-0.2,3.8l2,1l-0.5,3.3l1,1.2l-0.5,2.5v1l2,1l2.5,0.5h2
	l2.5,1.5c0,0,0.3-0.4,0.3,0.7c0,0.4,0.7,2.4,0.7,3.3c0,1.4-1,3-1,3l-2.5,1.5l-1,2l-2,3.5c0,0-2.1,0-2.6,0s-3.9,0-3.9,0l-2,1l1.5-3.5
	l2-1l1-1v-3v-4c0,0-1-1-1-2s-1-1-1-2s0-1-1-2s-3-1-2-2s1-5,1-5l-1-3v-2v-1l-2,1.1c0,0-1-2.1-2-2.1s-1,1-1,1h-2v-2l-1-4v-6v-2l-1-4
	l-1.5-3.1V52l-1.5-1.5l-2-2c0,0,0,0,0-1s0-3,0-3l-1-1l-1-4l-0.5-0.4V38.1z"/>
<path class="st0" d="M86.9,112.1l1.5,1.5l0.5,1.5l-1,2l-3,2l0.5,1.5l1,2l1,2v2l-0.2,2.2l-1.3-0.7l-1.5,1.5v1.6l2,1.4
	c0,0,1.5,1.1,1.5,1.5s0.5,1.5,0.5,1.5s0,0,0,1s-2,1.4-2,1.4s-1.3,1.5-2.5,1.1s-1.5-0.9-1.5-0.9l-1.5,3.9l0.5,2.5l-4.5,4.5l-2.5,2.5
	l-0.5,0.5c0,0-0.8-0.4-1,0s0,1.5,0,2c0,1,0,4,0,4l-0.5,1.5l-1,1l-2,2v1.1v2.4v0.5h-2l-0.5-1.5l-3-1l-0.5-1.5l-1-1v-2l1-2h2l1,2h1v-1
	l-1-2c0,0,0,0,0-1s2-4,2-4h2c0,0,0-1,0-2s-1-4,0-4s2,0,2,0v2l1-1v-2l-1-1v-2l3-3l1-1v-4v-2h5l-0.7-2.8l-2.3-2.2h-1l1-3h3l1-1v-3l1-1
	v-3h1c0,0,0-1,0-2s0.5-2.6,0.5-2.5L86.9,112.1z"/>
<path class="st2" d="M70.1,176.8c0,1.2-0.1,2.5-0.1,3.7c0,0.3,0,0.5-0.1,0.8c-0.2,0.5-0.7,0.7-1.2,0.9c-3.3,1.5-5.4,5.2-5,8.9
	c-1,0.1-1.7,1.2-1.8,2.3c-0.1,1,0.3,2.1,0.7,3c0.3,0.7,0.6,1.4,1.2,1.9c0.6,0.5,1.6,0.5,2-0.1c0.2,0.9,0.3,1.9,0.1,2.9
	c-0.2,1-0.9,1.8-1.9,2c1.7,0.8,2.7,2.7,3.1,4.5c0.3,1.9,0,3.8-0.3,5.6c-1.3,0-2.6,0-3.8,0c-0.3-0.7-0.7-1.3-1-2
	c-2.7-0.8-5.4,1.5-6.9,3.9c-1.3,2.1-2.2,4.7-1.4,7c-0.8-0.7-2-0.3-2.9,0.2s-2,1.2-2.9,0.8c0.1-2.4,0.2-4.8,0.3-7.2
	c0-0.5,0-1.1,0.2-1.6c0.3-0.9,1-1.6,1.5-2.4c2.2-3,2-7.1,1.8-10.9c-0.1-1.6-0.2-3.2-0.3-4.9c0-0.6-0.2-1.3-0.7-1.4
	c-0.3-0.1-0.6,0-0.8-0.1s-0.2-0.4-0.3-0.6c-0.6-3-0.9-6-1-9.1c0-1,0-2,0.6-2.8c0.4-0.5,1-0.8,1.4-1.2c2-1.7,2.2-4.6,2.2-7.2
	c0-0.6,0-1.2-0.2-1.8c-0.4-1.1-1.5-1.7-2.6-2c0-1.5,2.3-2,3.3-1.4c0.7,0.4,1.1,1.1,1.8,1.4c0.7,0.3,1.8-0.4,1.4-1.1
	c2,0.8,4.6-1.5,6.3-0.1c0.7,0.6,0.8,1.6,1.4,2.3c1.4,1.7,4.8,0.8,5.8,2.8c0.3,0.5,0.3,1.2,0.2,1.8C70.1,176.1,70.1,176.5,70.1,176.8
	z"/>
<path class="st3" d="M58.4,138.6C58.4,138.5,58.4,138.5,58.4,138.6C58.4,138.5,58.4,138.5,58.4,138.6z"/>
<path class="st2" d="M100.4,101.6c-1,2-2.3,4-2.3,4s-2.7,0-4.7,0c-0.3,0-0.7,0-1,0.1c-1.7,0.3-3.3,1.1-5,1.9c-2,1-1,1-2,3
	c-0.5,0.9-0.1,1.2,0.6,1.5c0.8,0.3,1.9,0.6,2.4,1.7c1,2.2,0,2.8-1,3.8s-2,0-2,2v0.1c0,1.8,1.6,2.8,1.9,5.1c0,0.3,0.1,0.6,0.1,0.9
	c0,2.5,0.7,3.1,0.9,3.2c-0.5-0.1-3.9-1-3.9,0.8c0,2,2,3,2,3l0,0c0.2,0.3,2,3,2,4s-1,1-2.5,2s-3.5,0-3.5,0s-1,2-1,4
	c0,0.9,0,1.6-0.3,2.3c-0.3,0.8-1,1.7-2.6,2.8c-0.5,0.4-1,0.8-1.4,1.2c-0.5,0.5-1,0.9-1.4,1.2c-1,0.9-1.7,1.5-2.3,1.5
	c-0.7,0-0.9,1-1,2c0,0.5,0,1,0,1.4v4.6c0,2-3,2-3,2v2.1v2.9h-1.9l-0.3-0.6l-0.7-1.4l-2.7-1l-0.4-0.9c-1-2.3-2.5-1.7-4.4-1.1
	c-1.6,0.5-2.7,2-4.5,2.1c0.3-1.8-0.2-3.2-1.3-4.7c-2.6-3.5,3.9-4.3,4.2-7.8c0.2-1.7-0.2-3.5,0.4-5.2c0.3-0.9,1-1.8,1.4-2.7
	c0.3-0.7-0.8-4.7-0.6-4.8c1.2-1.2,2.1-0.8,2.9-2.4c0.9-1.9-0.3-4.8,0.2-6.9c0.2-1,0.7-1.8,0.8-2.8s-0.2-2.1-1.1-2.5
	c-0.4-0.2-0.9-0.3-0.9-0.7c0-0.2,0.1-0.4,0.3-0.5c2-2.2,4.3-5,2.9-8.2c0,0,0-0.4,0-0.9c0-5,0.4-10,1.1-15c-1.3,0-2.2-1.3-2.3-2.6
	c-0.1-2.2,1.3-4.5,3.2-5.5c0,0,0.1,0,0.1-0.1c4.1-1.8,4.1-13.3,2.9-16.9l-1-3c0,0,0-1.4-0.2-2.7c-0.1-0.9-0.4-1.8-0.8-2.3
	c-4.2-4.3,3.8-12.2-1-17l0,0c-0.7-1.4-0.4-4.9-0.2-6.8c0.3-2.7,3.2-1.4,4.8-2.2c2.6-1.3,0.7-1.4,2.4-3c0.5-0.5,0.5-1.5,0.4-2.3
	c-0.1-0.9-0.4-1.7-0.4-1.7l2-1l1.6-0.5l1.4-0.5l0.5,5l0.3,0.2l1.8,1.7V42l2.4,1.5v3l1,3l1,1l1,1c0,0,2,2,2,3c0,0,0,0,0,0.1
	c-0.1,0.8-1.5,1.7-1.9,1.9c-0.1,0-0.1,0-0.1,0l0,0c0.2,0.2,1.9,2,1,3c-1,1-2,0-2,2c0,0-2,1-2,2c0,0.8,0.6,0.3,2.5,0.6
	c0.4,0.1,1,0.2,1.5,0.4c3,1,1,0,1,2s-1,0-1,2c0,0.4,0,0.7,0.1,0.9c0.3,0.7,1.3,0.3,2.9,1.1c2,1,0,0,0,2c0,0.4,0,0.7,0.1,0.9
	c0.3,0.8,1.1,0.5,1.9,2.1c1,2,0,0,0,3v0.1c0,2.9,1,1,2,1.9c0.7,0.7,0.4,1.9,0.2,2.9c-0.1,0.4-0.2,0.8-0.2,1.1c0,1,1,2,1,2s-1,2,0,3
	s3,1,4,1s3,0,4,1s0,2,1,4S101.4,99.6,100.4,101.6z"/>
<path class="st3" d="M63.8,116.1l3.7-0.8c0,0,2.9-2.8,3.9-2.8s2.7,2.5,3.8,1.8s2.3-1.8,4.2-1.8s5.9-2,5.9-2"/>
<path class="st3" d="M67.4,70.6c0,0,4-1,5-2s4-1,5-1s2-3,3-3s0.3-1,2-1"/>
<polyline class="st3" points="59.3,142.6 66.9,147.6 73.4,147.6 75.7,150.1 "/>
<rect x="27.5" y="61.5" class="st4" width="11.1" height="74"/>
<text transform="matrix(4.489659e-11 -1 1 4.489659e-11 33.3497 119.1387)" class="st5 st6 st7">Zona Norte</text>
<rect x="27.5" y="167.9" class="st4" width="11.1" height="57.4"/>
<text transform="matrix(4.489659e-11 -1 1 4.489659e-11 33.3497 219.2432)" class="st5 st6 st7">Zona Centro</text>
<rect x="99.9" y="131.7" class="st4" width="7.7" height="50.3"/>
<text transform="matrix(0 1 -1 0 101.6504 136.3434)" class="st5 st6 st7">Zona Chico</text>
<polyline class="st8" points="62.7,165.9 37.6,165.9 37.6,31 76,31 "/>
<polyline class="st8" points="45.9,223.1 37.6,223.1 37.6,169 48.5,169 "/>
<polyline class="st8" points="68.2,203 97.4,203 97.4,110.6 87.4,110.6 "/>
<rect x="28.8" y="242" class="st4" width="60.4" height="7.4"/>
<text transform="matrix(1 0 0 1 28.8311 246.4364)" class="st5 st9 st10">Fuente: ENCCRV, Conaf.</text>
</svg>
