<?xml version="1.0" encoding="utf-8"?>
<!-- Generator: Adobe Illustrator 25.3.1, SVG Export Plug-In . SVG Version: 6.00 Build 0)  -->
<svg version="1.1" id="Capa_1" xmlns="http://www.w3.org/2000/svg" xmlns:xlink="http://www.w3.org/1999/xlink" x="0px" y="0px"
	 viewBox="0 0 225 279.4" style="enable-background:new 0 0 225 279.4;" xml:space="preserve">
<style type="text/css">
	.st0{font-family:'IBMPlexSansCond';}
	.st1{font-size:6.5041px;}
	.st2{fill:none;stroke:#717171;stroke-width:0.5;stroke-miterlimit:10;}
	.st3{fill:none;}
	.st4{fill:#333333;}
	.st5{font-size:6.0892px;}
	.st6{fill:none;stroke:#717171;stroke-linecap:round;stroke-linejoin:round;}
	.st7{fill:none;stroke:#717171;stroke-linecap:round;stroke-linejoin:round;stroke-dasharray:2.0321,2.0321;}
	.st8{fill:none;stroke:#717171;stroke-linecap:round;stroke-linejoin:round;stroke-dasharray:1.9507,1.9507;}
</style>
<g>
	<text transform="matrix(1 0 0 1 26.0492 244.5059)" class="st0 st1">Fuente: ENCCRV,  Conaf.</text>
	<line class="st2" x1="40" y1="214.5" x2="193.4" y2="214.5"/>
	<line class="st2" x1="40" y1="36.4" x2="40" y2="214.5"/>
	<rect x="25.7" y="34" class="st3" width="10.2" height="4.9"/>
	<text transform="matrix(1 0 0 1 25.7328 38.4647)" class="st4 st0 st5">1,0</text>
	<g>
		<line class="st6" x1="98.4" y1="82.4" x2="98.4" y2="83"/>
		<line class="st7" x1="98.4" y1="84.2" x2="98.4" y2="108.4"/>
		<line class="st6" x1="98.4" y1="109" x2="98.4" y2="109.6"/>
	</g>
	<g>
		<line class="st6" x1="130" y1="35.8" x2="130" y2="36.4"/>
		<line class="st8" x1="130" y1="37.6" x2="130" y2="79.8"/>
		<line class="st6" x1="130" y1="80.4" x2="130" y2="81"/>
	</g>
	<polyline class="st2" points="66.1,82.4 98.4,82.4 130,35.8 	"/>
	<g>
		<line class="st6" x1="66.1" y1="109.6" x2="66.1" y2="109"/>
		<line class="st7" x1="66.1" y1="107.7" x2="66.1" y2="83.6"/>
		<line class="st6" x1="66.1" y1="83" x2="66.1" y2="82.4"/>
	</g>
	<g>
		<line class="st6" x1="162.3" y1="35.8" x2="162.3" y2="36.4"/>
		<line class="st8" x1="162.3" y1="37.6" x2="162.3" y2="79.8"/>
		<line class="st6" x1="162.3" y1="80.4" x2="162.3" y2="81"/>
	</g>
	<line class="st2" x1="194.6" y1="35.8" x2="130" y2="35.8"/>
	<g>
		<line class="st6" x1="194.6" y1="81" x2="194.6" y2="80.4"/>
		<line class="st8" x1="194.6" y1="79.1" x2="194.6" y2="37"/>
		<line class="st6" x1="194.6" y1="36.4" x2="194.6" y2="35.8"/>
	</g>
	<polyline class="st2" points="66.1,109.6 98.4,109.6 130,81 194.6,81 	"/>
	<line class="st2" x1="39" y1="36.4" x2="40.8" y2="36.4"/>
	<line class="st2" x1="39" y1="45.5" x2="40.8" y2="45.5"/>
	<rect x="25.7" y="52.2" class="st3" width="10.2" height="4.9"/>
	<text transform="matrix(1 0 0 1 25.7328 56.7322)" class="st4 st0 st5">0,9</text>
	<line class="st2" x1="39" y1="54.7" x2="40.8" y2="54.7"/>
	<line class="st2" x1="39" y1="63.8" x2="40.8" y2="63.8"/>
	<rect x="25.7" y="70.5" class="st3" width="10.2" height="4.9"/>
	<text transform="matrix(1 0 0 1 25.7328 75.0003)" class="st4 st0 st5">0,8</text>
	<line class="st2" x1="39" y1="72.9" x2="40.8" y2="72.9"/>
	<line class="st2" x1="39" y1="82.1" x2="40.8" y2="82.1"/>
	<rect x="25.7" y="88.8" class="st3" width="10.2" height="4.9"/>
	<text transform="matrix(1 0 0 1 25.7328 93.2674)" class="st4 st0 st5">0,7</text>
	<line class="st2" x1="39" y1="91.2" x2="40.8" y2="91.2"/>
	<line class="st2" x1="39" y1="100.3" x2="40.8" y2="100.3"/>
	<rect x="25.7" y="107" class="st3" width="10.2" height="4.9"/>
	<text transform="matrix(1 0 0 1 25.7328 111.5359)" class="st4 st0 st5">0,6</text>
	<line class="st2" x1="39" y1="109.5" x2="40.8" y2="109.5"/>
	<line class="st2" x1="39" y1="118.6" x2="40.8" y2="118.6"/>
	<rect x="25.7" y="125.3" class="st3" width="10.2" height="4.9"/>
	<text transform="matrix(1 0 0 1 25.7328 129.8026)" class="st4 st0 st5">0,5</text>
	<line class="st2" x1="39" y1="127.7" x2="40.8" y2="127.7"/>
	<line class="st2" x1="39" y1="136.9" x2="40.8" y2="136.9"/>
	<rect x="25.7" y="143.6" class="st3" width="10.2" height="4.9"/>
	<text transform="matrix(1 0 0 1 25.7328 148.0701)" class="st4 st0 st5">0,4</text>
	<line class="st2" x1="39" y1="146" x2="40.8" y2="146"/>
	<line class="st2" x1="39" y1="155.1" x2="40.8" y2="155.1"/>
	<rect x="25.7" y="161.8" class="st3" width="10.2" height="4.9"/>
	<text transform="matrix(1 0 0 1 25.7328 166.3387)" class="st4 st0 st5">0,3</text>
	<line class="st2" x1="39" y1="164.3" x2="40.8" y2="164.3"/>
	<line class="st2" x1="39" y1="173.4" x2="40.8" y2="173.4"/>
	<rect x="25.7" y="180.1" class="st3" width="10.2" height="4.9"/>
	<text transform="matrix(1 0 0 1 25.7328 184.6053)" class="st4 st0 st5">0,2</text>
	<line class="st2" x1="39" y1="182.5" x2="40.8" y2="182.5"/>
	<line class="st2" x1="39" y1="191.7" x2="40.8" y2="191.7"/>
	<line class="st2" x1="66.7" y1="215.4" x2="66.7" y2="213.5"/>
	<line class="st2" x1="98.4" y1="215.4" x2="98.4" y2="213.5"/>
	<line class="st2" x1="130" y1="215.4" x2="130" y2="213.5"/>
	<line class="st2" x1="161.7" y1="215.4" x2="161.7" y2="213.5"/>
	<line class="st2" x1="193.4" y1="214.5" x2="193.4" y2="213.5"/>
	<line class="st2" x1="193.4" y1="215.4" x2="193.4" y2="214.5"/>
	<rect x="25.7" y="198.4" class="st3" width="23" height="4.9"/>
	<text transform="matrix(1 0 0 1 25.7328 202.8738)" class="st4 st0 st5">0,1</text>
	<rect x="65.3" y="222.1" class="st3" width="2.9" height="4.9"/>
	<text transform="matrix(1 0 0 1 65.6347 226.6209)" class="st4 st0 st5">I</text>
	<rect x="95.4" y="222.1" class="st3" width="6" height="4.9"/>
	<text transform="matrix(1 0 0 1 96.1679 226.6209)" class="st4 st0 st5">II</text>
	<rect x="124.1" y="222.1" class="st3" width="11.8" height="4.9"/>
	<text transform="matrix(1 0 0 1 126.7294 226.6209)" class="st4 st0 st5">III</text>
	<rect x="155.8" y="222.1" class="st3" width="11.8" height="4.9"/>
	<text transform="matrix(1 0 0 1 158.9252 226.6209)" class="st4 st0 st5">IV</text>
	<rect x="187.5" y="222.1" class="st3" width="11.8" height="4.9"/>
	<text transform="matrix(1 0 0 1 191.6923 226.6209)" class="st4 st0 st5">V</text>
	<line class="st2" x1="39" y1="200.8" x2="40.8" y2="200.8"/>
</g>
</svg>
