<?xml version="1.0" encoding="utf-8"?>
<!-- Generator: Adobe Illustrator 25.3.1, SVG Export Plug-In . SVG Version: 6.00 Build 0)  -->
<svg version="1.1" id="Capa_1" xmlns="http://www.w3.org/2000/svg" xmlns:xlink="http://www.w3.org/1999/xlink" x="0px" y="0px"
	 viewBox="0 0 325 396" style="enable-background:new 0 0 325 396;" xml:space="preserve">
<style type="text/css">
	.st0{fill:none;stroke:#717171;stroke-width:0.5;stroke-miterlimit:10;}
	.st1{fill:none;}
	.st2{font-family:'IBMPlexSansCond';}
	.st3{font-size:10px;}
	.st4{fill:#333333;}
	.st5{fill:none;stroke:#717171;stroke-linecap:round;stroke-linejoin:round;}
	.st6{fill:none;stroke:#717171;stroke-linecap:round;stroke-linejoin:round;stroke-dasharray:2.0321,2.0321;}
	.st7{fill:none;stroke:#717171;stroke-linecap:round;stroke-linejoin:round;stroke-dasharray:1.9507,1.9507;}
</style>
<g>
	<line class="st0" x1="43.4" y1="318.5" x2="295.3" y2="318.5"/>
	<line class="st0" x1="43.4" y1="26" x2="43.4" y2="318.5"/>
	<rect x="21" y="364" class="st1" width="97.8" height="10"/>
	<text transform="matrix(1 0 0 1 21.0059 371.3932)" class="st2 st3">Fuente: ENCCRV, </text>
	<rect x="20" y="22" class="st1" width="16.8" height="8"/>
	<text transform="matrix(1 0 0 1 20.0059 29.3972)" class="st4 st2 st3">1,0</text>
	<g>
		<g>
			<line class="st5" x1="139.3" y1="101.5" x2="139.3" y2="102.5"/>
			<line class="st6" x1="139.3" y1="104.5" x2="139.3" y2="144.2"/>
			<line class="st5" x1="139.3" y1="145.2" x2="139.3" y2="146.2"/>
		</g>
	</g>
	<g>
		<g>
			<line class="st5" x1="191.3" y1="25" x2="191.3" y2="26"/>
			<line class="st7" x1="191.3" y1="28" x2="191.3" y2="97.2"/>
			<line class="st5" x1="191.3" y1="98.2" x2="191.3" y2="99.2"/>
		</g>
	</g>
	<polyline class="st0" points="86.3,101.5 139.3,101.5 191.3,25 	"/>
	<g>
		<g>
			<line class="st5" x1="86.3" y1="146.2" x2="86.3" y2="145.2"/>
			<line class="st6" x1="86.3" y1="143.1" x2="86.3" y2="103.5"/>
			<line class="st5" x1="86.3" y1="102.5" x2="86.3" y2="101.5"/>
		</g>
	</g>
	<g>
		<g>
			<line class="st5" x1="244.3" y1="25" x2="244.3" y2="26"/>
			<line class="st7" x1="244.3" y1="28" x2="244.3" y2="97.2"/>
			<line class="st5" x1="244.3" y1="98.2" x2="244.3" y2="99.2"/>
		</g>
	</g>
	<line class="st0" x1="297.3" y1="25" x2="191.3" y2="25"/>
	<g>
		<g>
			<line class="st5" x1="297.3" y1="99.2" x2="297.3" y2="98.2"/>
			<line class="st7" x1="297.3" y1="96.2" x2="297.3" y2="27"/>
			<line class="st5" x1="297.3" y1="26" x2="297.3" y2="25"/>
		</g>
	</g>
	<polyline class="st0" points="86.3,146.2 139.3,146.2 191.3,99.2 297.3,99.2 	"/>
	<line class="st0" x1="41.8" y1="26" x2="44.8" y2="26"/>
	<line class="st0" x1="41.8" y1="41" x2="44.8" y2="41"/>
	<rect x="20" y="52" class="st1" width="16.8" height="8"/>
	<text transform="matrix(1 0 0 1 20.0059 59.3972)" class="st4 st2 st3">0,9</text>
	<line class="st0" x1="41.8" y1="56" x2="44.8" y2="56"/>
	<line class="st0" x1="41.8" y1="71" x2="44.8" y2="71"/>
	<rect x="20" y="82" class="st1" width="16.8" height="8"/>
	<text transform="matrix(1 0 0 1 20.0059 89.3972)" class="st4 st2 st3">0,8</text>
	<line class="st0" x1="41.8" y1="86" x2="44.8" y2="86"/>
	<line class="st0" x1="41.8" y1="101" x2="44.8" y2="101"/>
	<rect x="20" y="112" class="st1" width="16.8" height="8"/>
	<text transform="matrix(1 0 0 1 20.0059 119.3972)" class="st4 st2 st3">0,7</text>
	<line class="st0" x1="41.8" y1="116" x2="44.8" y2="116"/>
	<line class="st0" x1="41.8" y1="131" x2="44.8" y2="131"/>
	<rect x="20" y="142" class="st1" width="16.8" height="8"/>
	<text transform="matrix(1 0 0 1 20.0059 149.3972)" class="st4 st2 st3">0,6</text>
	<line class="st0" x1="41.8" y1="146" x2="44.8" y2="146"/>
	<line class="st0" x1="41.8" y1="161" x2="44.8" y2="161"/>
	<rect x="20" y="172" class="st1" width="16.8" height="8"/>
	<text transform="matrix(1 0 0 1 20.0059 179.3972)" class="st4 st2 st3">0,5</text>
	<line class="st0" x1="41.8" y1="176" x2="44.8" y2="176"/>
	<line class="st0" x1="41.8" y1="191" x2="44.8" y2="191"/>
	<rect x="20" y="202" class="st1" width="16.8" height="8"/>
	<text transform="matrix(1 0 0 1 20.0059 209.3972)" class="st4 st2 st3">0,4</text>
	<line class="st0" x1="41.8" y1="206" x2="44.8" y2="206"/>
	<line class="st0" x1="41.8" y1="221" x2="44.8" y2="221"/>
	<rect x="20" y="232" class="st1" width="16.8" height="8"/>
	<text transform="matrix(1 0 0 1 20.0059 239.3972)" class="st4 st2 st3">0,3</text>
	<line class="st0" x1="41.8" y1="236" x2="44.8" y2="236"/>
	<line class="st0" x1="41.8" y1="251" x2="44.8" y2="251"/>
	<rect x="20" y="262" class="st1" width="16.8" height="8"/>
	<text transform="matrix(1 0 0 1 20.0059 269.3972)" class="st4 st2 st3">0,2</text>
	<line class="st0" x1="41.8" y1="266" x2="44.8" y2="266"/>
	<line class="st0" x1="41.8" y1="281" x2="44.8" y2="281"/>
	<line class="st0" x1="87.3" y1="320" x2="87.3" y2="316.9"/>
	<line class="st0" x1="139.3" y1="320" x2="139.3" y2="316.9"/>
	<line class="st0" x1="191.3" y1="320" x2="191.3" y2="316.9"/>
	<line class="st0" x1="243.3" y1="320" x2="243.3" y2="316.9"/>
	<line class="st0" x1="295.3" y1="318.5" x2="295.3" y2="316.9"/>
	<line class="st0" x1="295.3" y1="320" x2="295.3" y2="318.5"/>
	<rect x="20" y="292" class="st1" width="37.8" height="8"/>
	<text transform="matrix(1 0 0 1 20.0059 299.3972)" class="st4 st2 st3">0,1</text>
	<rect x="85" y="331" class="st1" width="4.8" height="8"/>
	<text transform="matrix(1 0 0 1 85.5354 338.3972)" class="st4 st2 st3">I</text>
	<rect x="134.4" y="331" class="st1" width="9.8" height="8"/>
	<text transform="matrix(1 0 0 1 135.6779 338.3972)" class="st4 st2 st3">II</text>
	<rect x="181.6" y="331" class="st1" width="19.4" height="8"/>
	<text transform="matrix(1 0 0 1 185.8678 338.3972)" class="st4 st2 st3">III</text>
	<rect x="233.6" y="331" class="st1" width="19.4" height="8"/>
	<text transform="matrix(1 0 0 1 238.7427 338.3972)" class="st4 st2 st3">IV</text>
	<rect x="285.6" y="331" class="st1" width="19.4" height="8"/>
	<text transform="matrix(1 0 0 1 292.5523 338.3972)" class="st4 st2 st3">V</text>
	<line class="st0" x1="41.8" y1="296" x2="44.8" y2="296"/>
</g>
</svg>
